<svg xmlns="http://www.w3.org/2000/svg" version="1.1" xmlns:xlink="http://www.w3.org/1999/xlink" viewBox="0 0 200 200"><rect width="200" height="200" fill="url('#gradient')"></rect><defs><linearGradient id="gradient" gradientTransform="rotate(45 0.5 0.5)"><stop offset="0%" stop-color="#ffffff"></stop><stop offset="100%" stop-color="#ffffff"></stop></linearGradient></defs><g><g fill="#ff6900" transform="matrix(2.3445117845117847,0,0,2.3445117845117847,29.485681574192114,112.5795163536714)" stroke="#ff6900" stroke-width="0"><path d="M5.75 0L1.07 0L1.07-14.22L5.65-14.22Q7.54-14.22 9.04-13.36Q10.55-12.51 11.39-10.95Q12.24-9.39 12.25-7.46L12.25-7.46L12.25-6.81Q12.25-4.85 11.42-3.31Q10.60-1.76 9.10-0.88Q7.60-0.01 5.75 0L5.75 0ZM5.65-11.57L4.50-11.57L4.50-2.64L5.69-2.64Q7.17-2.64 7.96-3.69Q8.75-4.74 8.75-6.81L8.75-6.81L8.75-7.42Q8.75-9.48 7.96-10.53Q7.17-11.57 5.65-11.57L5.65-11.57ZM17.32-10.57L17.32 0L14.02 0L14.02-10.57L17.32-10.57ZM13.83-13.29L13.83-13.29Q13.83-13.99 14.34-14.44Q14.84-14.89 15.65-14.89Q16.46-14.89 16.97-14.44Q17.48-13.99 17.48-13.29Q17.48-12.59 16.97-12.14Q16.46-11.69 15.65-11.69Q14.84-11.69 14.34-12.14Q13.83-12.59 13.83-13.29ZM18.96-5.24L18.96-5.36Q18.96-6.96 19.49-8.19Q20.02-9.42 21.01-10.09Q21.99-10.76 23.30-10.76L23.30-10.76Q24.95-10.76 25.88-9.65L25.88-9.65L26.00-10.57L28.98-10.57L28.98-0.40Q28.98 1.00 28.33 2.03Q27.69 3.06 26.46 3.61Q25.22 4.16 23.60 4.16L23.60 4.16Q22.44 4.16 21.35 3.72Q20.26 3.28 19.69 2.58L19.69 2.58L21.06 0.64Q21.98 1.73 23.49 1.73L23.49 1.73Q25.67 1.73 25.67-0.52L25.67-0.52L25.67-0.85Q24.73 0.20 23.28 0.20L23.28 0.20Q21.35 0.20 20.16-1.28Q18.96-2.76 18.96-5.24L18.96-5.24ZM22.27-5.16L22.27-5.16Q22.27-3.86 22.75-3.10Q23.24-2.34 24.12-2.34L24.12-2.34Q25.19-2.34 25.67-3.06L25.67-3.06L25.67-7.50Q25.20-8.22 24.14-8.22L24.14-8.22Q23.26-8.22 22.76-7.44Q22.27-6.65 22.27-5.16ZM35.97 0.20L35.97 0.20Q33.54 0.20 32.03-1.25Q30.53-2.71 30.53-5.03L30.53-5.03L30.53-5.30Q30.53-6.92 31.13-8.16Q31.73-9.40 32.88-10.08Q34.03-10.76 35.62-10.76L35.62-10.76Q37.84-10.76 39.13-9.38Q40.42-8.00 40.42-5.53L40.42-5.53L40.42-4.25L33.88-4.25Q34.05-3.36 34.65-2.85Q35.24-2.34 36.19-2.34L36.19-2.34Q37.75-2.34 38.63-3.44L38.63-3.44L40.14-1.66Q39.52-0.81 38.39-0.31Q37.27 0.20 35.97 0.20ZM35.60-8.22L35.60-8.22Q34.15-8.22 33.88-6.31L33.88-6.31L37.20-6.31L37.20-6.56Q37.22-7.35 36.80-7.79Q36.38-8.22 35.60-8.22ZM46.86 0.20L46.86 0.20Q44.42 0.20 42.92-1.25Q41.42-2.71 41.42-5.03L41.42-5.03L41.42-5.30Q41.42-6.92 42.02-8.16Q42.62-9.40 43.77-10.08Q44.92-10.76 46.50-10.76L46.50-10.76Q48.73-10.76 50.02-9.38Q51.31-8.00 51.31-5.53L51.31-5.53L51.31-4.25L44.77-4.25Q44.94-3.36 45.54-2.85Q46.13-2.34 47.08-2.34L47.08-2.34Q48.64-2.34 49.52-3.44L49.52-3.44L51.03-1.66Q50.41-0.81 49.28-0.31Q48.15 0.20 46.86 0.20ZM46.48-8.22L46.48-8.22Q45.04-8.22 44.77-6.31L44.77-6.31L48.09-6.31L48.09-6.56Q48.11-7.35 47.69-7.79Q47.27-8.22 46.48-8.22ZM59.08-10.64L59.02-7.59L57.94-7.67Q56.39-7.67 55.95-6.69L55.95-6.69L55.95 0L52.66 0L52.66-10.57L55.74-10.57L55.85-9.21Q56.68-10.76 58.16-10.76L58.16-10.76Q58.69-10.76 59.08-10.64L59.08-10.64Z"></path></g></g></svg>